<?xml version="1.0" encoding="UTF-8" standalone="no"?>
<!-- Created with Inkscape (http://www.inkscape.org/) -->

<svg
   width="297mm"
   height="210mm"
   viewBox="0 0 297 210"
   version="1.1"
   id="svg1"
   inkscape:export-filename="bebas.1.svg"
   inkscape:export-xdpi="96"
   inkscape:export-ydpi="96"
   sodipodi:docname="NextActiveFinalwithout backgroundwithoutA.svg"
   inkscape:version="1.4 (86a8ad7, 2024-10-11)"
   xml:space="preserve"
   xmlns:inkscape="http://www.inkscape.org/namespaces/inkscape"
   xmlns:sodipodi="http://sodipodi.sourceforge.net/DTD/sodipodi-0.dtd"
   xmlns:xlink="http://www.w3.org/1999/xlink"
   xmlns="http://www.w3.org/2000/svg"
   xmlns:svg="http://www.w3.org/2000/svg"><sodipodi:namedview
     id="namedview1"
     pagecolor="#ffffff"
     bordercolor="#000000"
     borderopacity="0.25"
     inkscape:showpageshadow="false"
     inkscape:pageopacity="0.0"
     inkscape:pagecheckerboard="0"
     inkscape:deskcolor="#ffffff"
     inkscape:document-units="mm"
     inkscape:zoom="0.53861605"
     inkscape:cx="668.37964"
     inkscape:cy="271.99338"
     inkscape:window-width="1920"
     inkscape:window-height="1057"
     inkscape:window-x="1072"
     inkscape:window-y="468"
     inkscape:window-maximized="1"
     inkscape:current-layer="layer1"
     showborder="false"
     borderlayer="false"><inkscape:page
       x="0"
       y="0"
       width="297"
       height="210"
       id="page2"
       margin="0"
       bleed="0" /></sodipodi:namedview><defs
     id="defs1"><linearGradient
       id="linearGradient9"
       inkscape:collect="always"><stop
         style="stop-color:#9cff00;stop-opacity:1;"
         offset="0.11736335"
         id="stop9" /><stop
         style="stop-color:#1e1f21;stop-opacity:1;"
         offset="0.97749197"
         id="stop10" /></linearGradient><linearGradient
       id="linearGradient6"
       inkscape:collect="always"><stop
         style="stop-color:#9cff00;stop-opacity:1;"
         offset="0"
         id="stop6" /><stop
         style="stop-color:#1e1f21;stop-opacity:1;"
         offset="0.63504827"
         id="stop7" /></linearGradient><rect
       x="147.0435"
       y="231.06837"
       width="340.03812"
       height="221.87816"
       id="rect2" /><linearGradient
       inkscape:collect="always"
       xlink:href="#linearGradient6"
       id="linearGradient7"
       x1="75.546623"
       y1="140.46704"
       x2="75.546623"
       y2="70.100845"
       gradientUnits="userSpaceOnUse"
       gradientTransform="translate(0,-0.28393972)" /><linearGradient
       inkscape:collect="always"
       xlink:href="#linearGradient9"
       id="linearGradient10"
       x1="69.998985"
       y1="146.4861"
       x2="69.998985"
       y2="126.47267"
       gradientUnits="userSpaceOnUse"
       gradientTransform="translate(0,-0.28393972)" /></defs><g
     inkscape:label="Слой 1"
     inkscape:groupmode="layer"
     id="layer1"><rect
       style="fill:url(#linearGradient10);fill-rule:evenodd;stroke:#010b12;stroke-width:1.265;stroke-opacity:1;paint-order:stroke markers fill"
       id="rect6"
       width="18.748428"
       height="14.8772"
       x="60.624771"
       y="128.75685" /><path
       d="m 40.99602,35.163243 h 27.640484 l 21.43139,83.604577 h 0.400587 V 35.163243 H 110.09723 V 174.83676 H 87.46408 L 61.025356,72.875093 H 60.62477 V 174.83676 H 40.99602 Z"
       id="text2"
       style="font-size:192px;font-family:'Bebas Neue';-inkscape-font-specification:'Bebas Neue';white-space:pre;opacity:0.99654;fill:url(#linearGradient7);fill-opacity:1;fill-rule:evenodd;stroke:#010b12;stroke-width:1.265;stroke-dasharray:none;stroke-dashoffset:29.0835;stroke-opacity:1;paint-order:stroke markers fill"
       aria-label="N" /><text
       xml:space="preserve"
       style="font-size:105.363px;font-family:'Bebas Neue';-inkscape-font-specification:'Bebas Neue';text-align:start;writing-mode:lr-tb;direction:ltr;text-anchor:start;opacity:0.99654;fill:#9cff00;fill-opacity:1;fill-rule:evenodd;stroke:#010b12;stroke-width:1.265;stroke-dasharray:none;stroke-dashoffset:29.0835;stroke-opacity:1;paint-order:stroke markers fill"
       x="110.7439"
       y="173.76077"
       id="text4"
       transform="scale(0.99987211,1.0001279)"><tspan
         sodipodi:role="line"
         id="tspan4"
         style="fill:#9cff00;fill-opacity:1;stroke:#010b12;stroke-width:1.265;stroke-dasharray:none;stroke-opacity:1"
         x="110.7439"
         y="173.76077">ctive</tspan></text><g
       id="g10"
       inkscape:label="ext, arrow"
       transform="translate(8.3109194,-0.84149882)"><rect
         style="fill:#1e1f21;fill-opacity:1;fill-rule:evenodd;stroke:none;stroke-width:1.265;stroke-dasharray:none;stroke-opacity:1;paint-order:stroke markers fill"
         id="rect1-1-8"
         width="73.95755"
         height="8.5055237"
         x="191.35851"
         y="87.990387" /><text
         xml:space="preserve"
         style="font-size:86.4049px;font-family:'Bebas Neue';-inkscape-font-specification:'Bebas Neue';text-align:start;writing-mode:lr-tb;direction:ltr;text-anchor:start;opacity:0.99654;fill:#1e1f21;fill-opacity:1;fill-rule:evenodd;stroke:#010b12;stroke-width:1.265;stroke-dasharray:none;stroke-dashoffset:0;stroke-opacity:1;paint-order:stroke markers fill"
         x="110.78364"
         y="96.483566"
         id="text3"
         transform="scale(0.99987211,1.0001279)"><tspan
           sodipodi:role="line"
           id="tspan3"
           style="fill:#1e1f21;fill-opacity:1;stroke:#010b12;stroke-width:1.265;stroke-dasharray:none;stroke-dashoffset:0;stroke-opacity:1"
           x="110.78364"
           y="96.483566">ext</tspan></text><rect
         style="fill:#1e1f21;fill-opacity:1;fill-rule:evenodd;stroke:#010b12;stroke-width:1.265;stroke-dasharray:none;stroke-opacity:1;paint-order:stroke markers fill"
         id="rect1-1"
         width="52.334972"
         height="8.5055237"
         x="198.55815"
         y="87.990387" /><path
         sodipodi:type="star"
         style="fill:#1e1f21;fill-opacity:1;fill-rule:evenodd;stroke:#010b12;stroke-width:0.766233;stroke-dasharray:none;stroke-opacity:1;paint-order:stroke markers fill"
         id="path1"
         inkscape:flatsided="false"
         sodipodi:sides="3"
         sodipodi:cx="230.38849"
         sodipodi:cy="94.166817"
         sodipodi:r1="9.2601032"
         sodipodi:r2="4.6300516"
         sodipodi:arg1="2.0943951"
         sodipodi:arg2="3.1415927"
         inkscape:rounded="0"
         inkscape:randomized="0"
         d="m 225.75844,102.1863 0,-8.019484 0,-8.019484 6.94507,4.009743 6.94508,4.009742 -6.94508,4.009742 z"
         inkscape:transform-center-x="-3.8368123"
         transform="matrix(1.6573505,0,0,1.644544,-123.26773,-62.618324)"
         inkscape:transform-center-y="4.2185668e-06" /><rect
         style="fill:#1e1f21;fill-opacity:1;fill-rule:evenodd;stroke:none;stroke-width:1.265;stroke-dasharray:none;stroke-opacity:1;paint-order:stroke markers fill"
         id="rect1-1-1"
         width="66.734268"
         height="8.5055237"
         x="191.35851"
         y="87.990387" /></g><g
       style="fill:#000000;stroke-width:4.33599"
       id="g11"
       transform="matrix(0.25459979,0,0,0.25459979,216.73316,33.511579)"><g
         id="g3"
         style="stroke-width:4.33599">
	<path
   d="m 131.449,58.481 c 15.02,0 27.239,-12.219 27.239,-27.239 0,-15.02 -12.219,-27.239 -27.239,-27.239 -15.019,0 -27.238,12.219 -27.238,27.239 0,15.02 12.219,27.239 27.238,27.239 z m 0,-40.478 c 7.3,0 13.239,5.939 13.239,13.239 0,7.3 -5.939,13.239 -13.239,13.239 -7.3,0 -13.238,-5.939 -13.238,-13.239 0,-7.3 5.938,-13.239 13.238,-13.239 z"
   id="path1-1"
   style="stroke-width:4.33599" />
	<path
   d="m 189.723,70.818 c -2.714,-2.753 -7.146,-2.787 -9.899,-0.072 -0.162,0.162 -18.817,15.023 -74.339,-8.707 C 81.471,51.776 62.162,50.808 48.093,59.16 30.919,69.355 28.814,89.395 28.733,90.243 c -0.367,3.833 2.434,7.224 6.265,7.612 0.238,0.024 0.475,0.036 0.709,0.036 3.537,0 6.575,-2.685 6.958,-6.276 0.015,-0.139 1.615,-13.992 12.682,-20.48 9.872,-5.788 25.308,-4.482 44.634,3.778 26.231,11.21 45.529,14.675 59.371,14.674 20.344,-0.001 28.896,-7.488 30.298,-8.87 2.754,-2.714 2.786,-7.146 0.073,-9.899 z"
   id="path2"
   style="stroke-width:4.33599" />
	<path
   d="M 100.765,92.257 C 98.098,89.469 93.68,89.364 90.884,92.022 57.405,123.844 6.382,172.174 2.719,175.195 c -3.022,2.335 -3.617,6.673 -1.317,9.738 1.375,1.833 3.477,2.8 5.605,2.8 1.461,0 2.936,-0.457 4.195,-1.401 3.188,-2.392 60.012,-56.31 84.269,-79.356 l 33.736,35.27 c 1.496,1.564 0.999,3.275 0.715,3.938 -0.283,0.663 -1.175,2.205 -3.339,2.205 H 80.404 c -3.866,0 -7,3.134 -7,7 0,3.866 3.134,7 7,7 h 46.178 c 7.18,0 13.393,-4.102 16.213,-10.704 2.821,-6.603 1.491,-13.927 -3.472,-19.115 z"
   id="path3"
   style="stroke-width:4.33599" />
</g></g></g></svg>
